# xmcd
#
# Track frame offsets:
#	150
#	19775
#	36627
#	58152
#	98507
#	110365
#	122952
#	144740
#	163982
#	176327
#	188400
#	203100
#	224307
#	243950
#
# Disc length: 3587 seconds
#
# Revision: 1
# Processed by: cddbd v1.5PL3 Copyright (c) Steve Scherf et al.
# Submitted via: audiograbber 1.83.01
#
DISCID=c80e010e
DTITLE=Ahmet Kaya - Sürgün Günleri
DYEAR=1900
DGENRE=
TTITLE0=Sürgün Acisi
TTITLE1=Acilara Tutunmak
TTITLE2=Yüregim Kaniyor
TTITLE3=Safak Türküsü
TTITLE4=Kadinlar
TTITLE5=Merhaba
TTITLE6=Dokunma Yanarsin
TTITLE7=Hani Benim Gençligim
TTITLE8=Alninda Dag Atesi
TTITLE9=Katlime Ferman
TTITLE10=Gider Oldum
TTITLE11=Üsür Ölüm Bile
TTITLE12=Yorgun Demokrat
TTITLE13=Biz Üç Kisiydik
EXTD=
EXTT0=
EXTT1=
EXTT2=
EXTT3=
EXTT4=
EXTT5=
EXTT6=
EXTT7=
EXTT8=
EXTT9=
EXTT10=
EXTT11=
EXTT12=
EXTT13=
PLAYORDER=
